<svg width="33" height="32" viewBox="0 0 33 32" fill="none" xmlns="http://www.w3.org/2000/svg">
<path d="M27.5753 4.65396C24.6107 1.63756 20.5125 0 16.3272 0C7.43342 0 0.283417 7.1533 0.370542 15.8579C0.370542 18.6158 1.15529 21.2877 2.46329 23.7008L0.196167 31.8883L8.65404 29.7337C11.0083 31.0265 13.624 31.6298 16.24 31.6298C25.0467 31.6298 32.1967 24.4764 32.1967 15.7719C32.1967 11.5488 30.5398 7.58425 27.5753 4.65396ZM16.3272 28.9581C13.9729 28.9581 11.6187 28.355 9.61317 27.1484L9.09004 26.8898L4.03279 28.1825L5.34067 23.2701L4.99192 22.7529C1.15529 16.6338 2.98642 8.53226 9.26442 4.74008C15.5424 0.948016 23.6515 2.75793 27.4882 8.96321C31.3247 15.1685 29.4935 23.1837 23.2157 26.9759C21.21 28.2686 18.7687 28.958 16.3272 28.958V28.9581ZM24.0003 19.3918L23.0412 18.9608C23.0412 18.9608 21.6462 18.3575 20.7742 17.9265C20.6869 17.9265 20.5998 17.8403 20.5125 17.8403C20.2509 17.8403 20.0765 17.9265 19.9022 18.0128C19.9022 18.0128 19.815 18.0989 18.5943 19.4779C18.507 19.6502 18.3327 19.7365 18.1583 19.7365H18.071C17.9839 19.7365 17.8095 19.6502 17.7223 19.5641L17.2863 19.3918C16.3272 18.9608 15.4553 18.4436 14.7577 17.7542C14.5833 17.5818 14.3217 17.4095 14.1473 17.2371C13.5369 16.6338 12.9265 15.9443 12.4907 15.1686L12.4034 14.9963C12.3163 14.91 12.3163 14.8239 12.229 14.6516C12.229 14.4792 12.229 14.3068 12.3163 14.2206C12.3163 14.2206 12.665 13.7897 12.9265 13.5312C13.101 13.3587 13.1882 13.1002 13.3625 12.9279C13.5369 12.6693 13.6242 12.3246 13.5369 12.066C13.4498 11.635 12.4034 9.30805 12.1419 8.79098C11.9674 8.53239 11.7932 8.44627 11.5315 8.36003H10.5724C10.3979 8.36003 10.2237 8.44627 10.0492 8.44627L9.96192 8.53239C9.78754 8.61863 9.61317 8.79098 9.43879 8.8771C9.26442 9.04958 9.17717 9.22181 9.00279 9.39429C8.39242 10.1699 8.04367 11.118 8.04367 12.066C8.04367 12.7554 8.21804 13.4449 8.47967 14.0482L8.56692 14.3068C9.35167 15.9443 10.3979 17.4095 11.7932 18.7022L12.1419 19.0469C12.4034 19.3055 12.665 19.4779 12.8394 19.7363C14.6705 21.2878 16.7632 22.4082 19.1174 23.0115C19.379 23.0976 19.7278 23.0976 19.9894 23.1838H20.8613C21.2973 23.1838 21.8204 23.0115 22.1693 22.8391C22.4308 22.6667 22.6052 22.6667 22.7795 22.4944L22.954 22.3219C23.1284 22.1496 23.3028 22.0634 23.4772 21.8911C23.6515 21.7187 23.8259 21.5464 23.9132 21.3739C24.0875 21.0292 24.1747 20.5982 24.2619 20.1674V19.5641C24.2619 19.5641 24.1747 19.4779 24.0003 19.3918Z" fill="#191A23"/>
</svg>
